<svg width="55" height="55" viewBox="0 0 55 55" fill="none" xmlns="http://www.w3.org/2000/svg">
<circle cx="27.5" cy="27.5" r="27.5" fill="url(#paint0_linear)"/>
<path d="M18.196 41H28.816C34.18 41 38.104 38.3 38.104 33.404C38.104 30.2 36.16 28.184 33.964 27.248C35.368 26.456 36.772 24.656 36.772 22.28C36.772 18.032 33.136 15.8 28.636 15.8H18.196V41ZM24.496 25.088V20.768H27.952C30.112 20.768 30.94 21.632 30.94 22.928C30.94 24.224 30.112 25.088 28.096 25.088H24.496ZM24.496 35.528V30.416H28.348C31.048 30.416 32.128 31.352 32.128 33.008C32.128 34.664 31.048 35.528 28.348 35.528H24.496Z" fill="black"/>
<defs>
<linearGradient id="paint0_linear" x1="-15.5" y1="-4.5" x2="76" y2="55" gradientUnits="userSpaceOnUse">
<stop stop-color="#FFA800"/>
<stop offset="1" stop-color="#FF2E00"/>
</linearGradient>
</defs>
</svg>
